<svg width="48" height="25" viewBox="0 0 48 25" fill="none" xmlns="http://www.w3.org/2000/svg">
<rect width="47.7798" height="25" transform="translate(0.219727)" fill="black"/>
<path d="M17.5233 17H15.4142L18.6278 7.69091H21.1642L24.3733 17H22.2642L19.9323 9.81818H19.8596L17.5233 17ZM17.3914 13.3409H22.3733V14.8773H17.3914V13.3409ZM27.7051 17.1136C27.1748 17.1136 26.6945 16.9773 26.2642 16.7045C25.8369 16.4288 25.4975 16.0242 25.246 15.4909C24.9975 14.9545 24.8733 14.297 24.8733 13.5182C24.8733 12.7182 25.002 12.053 25.2596 11.5227C25.5172 10.9894 25.8596 10.5909 26.2869 10.3273C26.7172 10.0606 27.1884 9.92727 27.7005 9.92727C28.0914 9.92727 28.4172 9.99394 28.6778 10.1273C28.9414 10.2576 29.1536 10.4212 29.3142 10.6182C29.4778 10.8121 29.602 11.003 29.6869 11.1909H29.746V7.69091H31.6778V17H29.7687V15.8818H29.6869C29.596 16.0758 29.4672 16.2682 29.3005 16.4591C29.1369 16.647 28.9233 16.803 28.6596 16.9273C28.399 17.0515 28.0808 17.1136 27.7051 17.1136ZM28.3187 15.5727C28.6308 15.5727 28.8945 15.4879 29.1096 15.3182C29.3278 15.1455 29.4945 14.9045 29.6096 14.5955C29.7278 14.2864 29.7869 13.9242 29.7869 13.5091C29.7869 13.0939 29.7293 12.7333 29.6142 12.4273C29.499 12.1212 29.3323 11.8848 29.1142 11.7182C28.896 11.5515 28.6308 11.4682 28.3187 11.4682C28.0005 11.4682 27.7323 11.5545 27.5142 11.7273C27.296 11.9 27.1308 12.1394 27.0187 12.4455C26.9066 12.7515 26.8505 13.1061 26.8505 13.5091C26.8505 13.9152 26.9066 14.2742 27.0187 14.5864C27.1339 14.8955 27.299 15.1379 27.5142 15.3136C27.7323 15.4864 28.0005 15.5727 28.3187 15.5727Z" fill="white"/>
</svg>
